<svg class="col-start-1 row-start-1 row-span-full col-span-full z-[0] self-start relative hidden lg:block w-full filter drop-shadow-lg -mt-px" width="1920" height="1971" fill="none" xmlns="http://www.w3.org/2000/svg"><g><path fill-rule="evenodd" clip-rule="evenodd" d="M834.812 1729.56C850.162 1744.21 872.966 1749.06 893.377 1741.03C906.75 1735.76 921.31 1732.91 936.531 1732.91C1002.3 1732.91 1055.7 1786.31 1055.7 1852.08C1055.7 1866.87 1053.01 1881.03 1048.04 1894.1C1041.56 1911.13 1043.87 1930.27 1054.21 1945.27C1064.56 1960.28 1081.62 1969.24 1099.85 1969.24H1486.01V1971.36H939.339C938.094 1971.27 936.84 1971.22 935.576 1971.21C870.246 1970.73 817.367 1917.53 817.367 1852.08C817.367 1829.01 823.928 1807.45 835.34 1789.22C846.977 1770.64 846.396 1747.34 834.812 1729.56ZM826.649 1719.73C808.034 1701.94 779.567 1699.3 757.977 1713.45C690.735 1757.51 610.35 1783.11 524.034 1783.11C287.796 1783.11 96 1591.31 96 1355.07C96 1125.3 277.438 937.548 504.774 927.494C506.875 927.402 508.944 927.193 510.973 926.874H865.15C885.48 926.874 904.179 915.745 913.873 897.874C923.567 880.004 922.7 858.261 911.614 841.219C761.163 609.934 673.755 333.951 673.755 37.715C673.755 -777.306 1335.45 -1439 2150.48 -1439C2965.5 -1439 3627.19 -777.306 3627.19 37.715C3627.19 852.737 2965.5 1514.43 2150.48 1514.43C1679.46 1514.43 1259.67 1293.41 989.175 949.539C978.666 936.178 962.607 928.378 945.608 928.378H833.548C810.217 928.378 789.384 942.987 781.434 964.92C773.485 986.86 780.122 1011.42 798.036 1026.37C892.136 1104.89 952.068 1223.03 952.068 1355.07C952.068 1469.88 906.763 1574.19 833.055 1651.09C815.201 1669.72 812.581 1698.18 826.649 1719.73Z" fill="#0A0707" pathLength="1" stroke-dashoffset="0px" stroke-dasharray="1px 1px"/></g></svg>